<svg xmlns="http://www.w3.org/2000/svg" viewBox="0 0 4000 4000"><defs><style>.cls-1{fill:#0b132b;}.cls-2,.cls-3{fill:none;stroke:#fff;stroke-linecap:round;stroke-linejoin:round;}.cls-2{stroke-width:79.28px;}.cls-3{stroke-width:99.1px;stroke-dasharray:99.1 416.21;}.cls-4,.cls-5{fill:#44dba4;}.cls-5{font-size:436.03px;font-family:CircularStd-Bold, Circular Std;font-weight:700;}.cls-6{letter-spacing:0em;}.cls-7{letter-spacing:0.01em;}.cls-8{letter-spacing:0em;}.cls-10,.cls-11,.cls-9{fill:#fff;}.cls-9{letter-spacing:0em;}.cls-11{letter-spacing:0em;}</style></defs><title>Asset 8</title><g id="Layer_2" data-name="Layer 2"><g id="Your_design" data-name="Your design"><g id="logo"><rect class="cls-1" width="4000" height="4000"/><g id="_11" data-name="11"><path class="cls-2" d="M2077.37,2253.23a537.76,537.76,0,0,0,214.73,44.51c298.14,0,539.82-241.69,539.82-539.83s-241.68-539.82-539.82-539.82a537.76,537.76,0,0,0-214.73,44.51"/><path class="cls-3" d="M2691.5,2230.22c129.54-114.12,211.19-280.78,211.19-466.41,0-344-280.41-622.89-626.32-622.89a631.73,631.73,0,0,0-89.59,6.36c-32.92,4.71-77.48,14.82-116.29,26.85"/><path class="cls-2" d="M2077.37,1757.75a538,538,0,0,1-214.74,44.5c-298.14,0-539.82-241.69-539.82-539.82S1564.49,722.6,1862.63,722.6a537.81,537.81,0,0,1,214.74,44.51"/><path class="cls-3" d="M2077.37,1822.45a571.23,571.23,0,0,1-233.85,49.92c-324.69,0-587.89-271.09-587.89-605.48,0-326.82,251.4-593.15,565.88-605.07q11-.42,22-.42a571.65,571.65,0,0,1,140,17.35"/><line class="cls-2" x1="2077.54" y1="2708.05" x2="2077.54" y2="2249.48"/><line class="cls-2" x1="2736.4" y1="2708.05" x2="2599.73" y2="2388.54"/><circle class="cls-4" cx="2082.6" cy="765.19" r="80.39"/><circle class="cls-4" cx="2082.6" cy="2249.48" r="80.39"/><text class="cls-5" transform="translate(769.16 3356.62)"><tspan class="cls-6">c</tspan><tspan x="237.63" y="0">on</tspan><tspan class="cls-7" x="746.92" y="0">f</tspan><tspan class="cls-8" x="904.75" y="0">i</tspan><tspan class="cls-6" x="1024.65" y="0">g</tspan><tspan x="1282.78" y="0">u</tspan><tspan class="cls-9" x="1538.29" y="0">ro</tspan><tspan class="cls-10" x="1961.67" y="0">u</tspan><tspan class="cls-11" x="2217.18" y="0">t</tspan><tspan class="cls-10" x="2378.95" y="0">e</tspan></text></g></g></g></g></svg>